<svg class="ldi-ky1cix" width="100%" height="100%" xmlns="http://www.w3.org/2000/svg" xmlns:xlink="http://www.w3.org/1999/xlink" viewBox="0 0 100 100" preserveAspectRatio="xMidYMid"><!--?xml version="1.0" encoding="utf-8"?--><!--Generator: Adobe Illustrator 21.0.0, SVG Export Plug-In . SVG Version: 6.00 Build 0)--><svg version="1.1" id="Layer_1" xmlns="http://www.w3.org/2000/svg" xmlns:xlink="http://www.w3.org/1999/xlink" x="0px" y="0px" viewBox="0 0 100 100" style="transform-origin: 50px 50px 0px;" xml:space="preserve"><g style="transform-origin: 50px 50px 0px;"><g fill="#141414" style="fill: rgb(20, 20, 20); transform-origin: 50px 50px 0px; transform: scale(1);"><g style="transform-origin: 50px 50px 0px; animation-duration: 6.3s; animation-delay: -6.3s; animation-direction: normal;" class=""><g fill="#141414" style="fill: rgb(20, 20, 20);"><style type="text/css" style="transform-origin: 50px 50px 0px; animation-duration: 6.3s; animation-delay: -6.3s; animation-direction: normal;" class="ld ld-heartbeat">.st0{fill:#F4E6C8;} .st1{opacity:0.8;fill:#849B87;} .st2{fill:#D65A62;} .st3{fill:#E15C64;} .st4{fill:#F47E5F;} .st5{fill:#F7B26A;} .st6{fill:#FEE8A2;} .st7{fill:#ACBD81;} .st8{fill:#F5E169;} .st9{fill:#F0AF6B;} .st10{fill:#EA7C60;} .st11{fill:#A8B980;} .st12{fill:#829985;} .st13{fill:#798AAE;} .st14{fill:#8672A7;} .st15{fill:#CC5960;} .st16{fill:#E17A5F;} .st17{fill:#849B87;} .st18{opacity:0.8;fill:#E15C64;} .st19{opacity:0.8;fill:#F7B26A;} .st20{fill:#79A5B5;} .st21{opacity:0.8;fill:#79A5B4;} .st22{fill:#666766;}</style><g style="transform-origin: 50px 50px 0px; animation-duration: 6.3s; animation-delay: -5.81538s; animation-direction: normal;" class="ld ld-heartbeat"><path class="st5" d="M88.7,71.8c-3.6,5.6-8.4,10.3-14,13.7c-5.6,3.4-11.9,5.4-18.2,5.9l-2.4,0.1c-0.8,0-1.6,0-2.4,0 c-1.6,0-3.2-0.2-4.7-0.4c-3.1-0.4-6.2-1.3-9.1-2.4c-5.8-2.3-11-5.9-15.1-10.4c4.5,4.1,9.9,7.1,15.7,8.7c2.9,0.8,5.8,1.3,8.8,1.4 c1.5,0.1,2.9,0.1,4.4-0.1c0.7-0.1,1.5-0.1,2.2-0.2l2.2-0.3c5.7-1.1,11.2-3.4,15.7-6.8c4.6-3.4,8.3-7.9,10.8-12.8 c0.9-1.7,3-2.4,4.8-1.5c1.7,0.9,2.4,3,1.5,4.8C88.8,71.5,88.8,71.6,88.7,71.8L88.7,71.8z" fill="#ab3259" style="fill: rgb(171, 50, 89);"></path></g><g style="transform-origin: 50px 50px 0px; animation-duration: 6.3s; animation-delay: -5.33077s; animation-direction: normal;" class="ld ld-heartbeat"><path class="st3" d="M50.7,6.5c-2,0.1-3.5,1.8-3.4,3.7c0.1,2,1.8,3.5,3.7,3.4c5.6-0.3,11.2,0.7,16.5,3c1.3,0.5,2.6,1.2,3.8,1.9 c0.6,0.3,1.2,0.7,1.8,1.1l1.8,1.2l1.7,1.4c0.5,0.5,1.2,0.9,1.6,1.4c1,1,2.1,2,3,3.2c3.8,4.4,6.6,9.8,8.1,15.6l0.4,2.2 c0.1,0.7,0.3,1.5,0.4,2.2c0.1,1.5,0.4,3,0.4,4.5c0,3-0.3,6.1-0.9,9c0.9-2.9,1.5-5.9,1.8-9c0.2-1.5,0.1-3.1,0.1-4.6 c0-0.8-0.1-1.5-0.2-2.3L91.1,42c-0.9-6.2-3.4-12.2-7-17.4c-0.8-1.4-1.9-2.5-2.9-3.8c-0.5-0.6-1.1-1.2-1.7-1.7 c-0.6-0.6-1.1-1.1-1.7-1.7l-1.9-1.5c-0.6-0.5-1.2-1-1.9-1.5c-1.3-0.9-2.7-1.9-4.1-2.6c-5.7-3.1-12.2-5-18.8-5.3 C50.9,6.5,50.8,6.5,50.7,6.5z" fill="#dcc75b" style="fill: rgb(220, 199, 91);"></path></g><g style="transform-origin: 50px 50px 0px; animation-duration: 6.3s; animation-delay: -4.84615s; animation-direction: normal;" class="ld ld-heartbeat"><path class="st4" d="M32,14.4c-2.8,1.4-5.5,2.9-7.9,4.9L23.2,20l-0.9,0.8c-0.6,0.5-1.2,1-1.7,1.6c-1.1,1.2-2.2,2.3-3.1,3.5 c-1,1.2-1.9,2.5-2.7,3.9c-0.4,0.7-0.8,1.4-1.2,2.1L13,33c-0.2,0.4-0.3,0.7-0.5,1.1l-1,2.2l-0.8,2.3c-0.3,0.8-0.5,1.5-0.7,2.3 c-0.2,0.8-0.4,1.6-0.6,2.3c-0.3,1.6-0.6,3.2-0.7,4.8c-0.2,1.6-0.3,3.2-0.2,4.9c0.1,6.5,1.8,13.1,4.9,19l0,0c0.1,0.1,0.1,0.2,0.2,0.3 c1.1,1.6,3.3,2.1,4.9,1c1.6-1.1,2.1-3.3,1-4.9c-3-4.7-5-10.1-5.7-15.7c-0.2-1.4-0.2-2.8-0.2-4.3c-0.1-1.4,0.1-2.9,0.2-4.3 c0.1-0.7,0.2-1.4,0.3-2.1c0.1-0.7,0.2-1.4,0.4-2.1l0.5-2.1l0.7-2.1c0.1-0.3,0.2-0.7,0.4-1l0.4-1c0.3-0.7,0.6-1.4,0.9-2 c0.7-1.3,1.3-2.6,2.2-3.8c0.8-1.3,1.7-2.4,2.6-3.6c0.5-0.6,1-1.1,1.5-1.7l0.7-0.8l0.8-0.8c2.1-2.1,4.6-3.9,7.1-5.5 c2.6-1.6,5.4-2.8,8.3-3.8C37.7,12.1,34.8,13,32,14.4z" fill="#e8c7ae" style="fill: rgb(232, 199, 174);"></path></g><metadata xmlns:d="https://loading.io/stock/" style="transform-origin: 50px 50px 0px; animation-duration: 6.3s; animation-delay: -4.36154s; animation-direction: normal;" class="ld ld-heartbeat">
<d:name style="transform-origin: 50px 50px 0px; animation-duration: 6.3s; animation-delay: -3.87692s; animation-direction: normal;" class="ld ld-heartbeat">comet</d:name>
<d:tags style="transform-origin: 50px 50px 0px; animation-duration: 6.3s; animation-delay: -3.39231s; animation-direction: normal;" class="ld ld-heartbeat">meteor,tail,tadpole,comet,spinner</d:tags>
<d:slug style="transform-origin: 50px 50px 0px; animation-duration: 6.3s; animation-delay: -2.42308s; animation-direction: normal;" class="ld ld-heartbeat">ky1cix</d:slug>
</metadata></g></g></g></g><style type="text/css" style="transform-origin: 50px 50px 0px; animation-duration: 6.3s; animation-delay: -1.93846s; animation-direction: normal;" class="ld ld-heartbeat">path,ellipse,circle,rect,polygon,polyline,line { stroke-width: 0; }@keyframes ld-heartbeat {
  0% {
    -webkit-transform: scale(0.8);
    transform: scale(0.8);
  }
  5% {
    -webkit-transform: scale(1);
    transform: scale(1);
  }
  39% {
    -webkit-transform: scale(0.65);
    transform: scale(0.65);
  }
  45% {
    -webkit-transform: scale(0.9);
    transform: scale(0.9);
  }
  60% {
    -webkit-transform: scale(0.8);
    transform: scale(0.8);
  }
  100% {
    -webkit-transform: scale(0.75);
    transform: scale(0.75);
  }
}
@-webkit-keyframes ld-heartbeat {
  0% {
    -webkit-transform: scale(0.8);
    transform: scale(0.8);
  }
  5% {
    -webkit-transform: scale(1);
    transform: scale(1);
  }
  39% {
    -webkit-transform: scale(0.65);
    transform: scale(0.65);
  }
  45% {
    -webkit-transform: scale(0.9);
    transform: scale(0.9);
  }
  60% {
    -webkit-transform: scale(0.8);
    transform: scale(0.8);
  }
  100% {
    -webkit-transform: scale(0.75);
    transform: scale(0.75);
  }
}
.ld.ld-heartbeat {
  -webkit-animation: ld-heartbeat 0.8s infinite cubic-bezier(0.215, 0.61, 0.355, 1);
  animation: ld-heartbeat 0.8s infinite cubic-bezier(0.215, 0.61, 0.355, 1);
}
</style></svg></svg>
